<svg width="32" height="32" viewBox="0 0 32 32" fill="none" xmlns="http://www.w3.org/2000/svg">
<g id="icons8-telegram-app (1)">
<path id="Vector" d="M3.88668 15.7438C12.2653 12.0578 23.108 7.56379 24.6047 6.94179C28.5307 5.31379 29.7353 5.62579 29.1347 9.23112C28.7033 11.8225 27.4587 20.4018 26.4667 25.7418C25.878 28.9085 24.5573 29.2838 22.4807 27.9138C21.482 27.2545 16.4413 23.9211 15.3473 23.1385C14.3487 22.4251 12.9713 21.5671 14.6987 19.8771C15.3133 19.2751 19.3427 15.4278 22.482 12.4331C22.8933 12.0398 22.3767 11.3938 21.902 11.7091C17.6707 14.5151 11.804 18.4098 11.0573 18.9171C9.92935 19.6831 8.84601 20.0345 6.90135 19.4758C5.43201 19.0538 3.99668 18.5505 3.43801 18.3585C1.28668 17.6198 1.79734 16.6631 3.88668 15.7438Z" fill="#0A7CFF"/>
</g>
</svg>
