<svg width="32" height="32" viewBox="0 0 32 32" fill="none" xmlns="http://www.w3.org/2000/svg">
<g id="icons8-vkontakte">
<path id="Vector" d="M30.5087 23.4678C29.3107 21.3118 26.2247 18.7211 24.9507 17.5938C24.602 17.2851 24.5647 16.7511 24.882 16.4098C27.3133 13.7971 29.258 10.7951 29.9273 8.98115C30.2227 8.17982 29.6113 7.33315 28.75 7.33315H26.248C25.4233 7.33315 24.9407 7.62915 24.7107 8.10048C22.69 12.2411 20.9567 14.0331 19.7433 15.0805C19.064 15.6671 18.0047 15.1811 18.0047 14.2885C18.0047 12.5685 18.0047 10.3451 18.0047 8.76848C18.0047 8.00381 17.3793 7.38515 16.608 7.38515L12.0373 7.33315C11.462 7.33315 11.1333 7.98448 11.4787 8.44115L12.2333 9.52448C12.5173 9.89981 12.6707 10.3565 12.6707 10.8251L12.6667 15.7038C12.6667 16.5525 11.638 16.9671 11.0273 16.3725C8.96132 14.3605 7.16865 10.2518 6.52332 8.28715C6.33665 7.71848 5.80399 7.33448 5.19999 7.33315L2.73532 7.32715C1.81065 7.32715 1.13465 8.20382 1.38599 9.08648C3.63799 16.9911 8.25865 24.5111 16.4933 25.3265C17.3047 25.4065 18.0047 24.7531 18.0047 23.9445V21.3805C18.0047 20.6451 18.5813 20.0131 19.3227 19.9945C19.3487 19.9938 19.3747 19.9938 19.4007 19.9938C21.5787 19.9938 24.018 23.1638 24.8713 24.6465C25.1167 25.0731 25.5753 25.3331 26.0713 25.3331H29.3867C30.354 25.3331 30.9747 24.3071 30.5087 23.4678Z" fill="#0A7CFF"/>
</g>
</svg>
