<svg width="32" height="32" viewBox="0 0 32 32" fill="none" xmlns="http://www.w3.org/2000/svg">
<path d="M15.905 5.66699C11.6699 5.66699 7.73494 5.96874 5.48962 6.43783C5.48484 6.43909 5.48007 6.44039 5.4753 6.44173C3.78369 6.82079 2.19083 8.03248 1.85551 9.93001C1.85507 9.93262 1.85463 9.93522 1.85421 9.93783C1.5966 11.4672 1.33337 13.4608 1.33337 16.3337C1.33337 19.2011 1.5975 21.1419 1.92322 22.7516C2.26676 24.5932 3.82285 25.8415 5.54041 26.2256C5.54862 26.2279 5.55687 26.23 5.56514 26.2321C7.90851 26.6938 11.7324 27.0003 15.9675 27.0003C20.2026 27.0003 24.0285 26.6938 26.3724 26.2321C26.3807 26.23 26.389 26.2279 26.3972 26.2256C28.0888 25.8465 29.6816 24.6348 30.017 22.7373C30.0179 22.7325 30.0187 22.7278 30.0196 22.723C30.2732 21.1624 30.6019 19.1707 30.6667 16.2933C30.6668 16.2859 30.6668 16.2785 30.6667 16.2712C30.6667 13.3921 30.3372 11.3861 30.0157 9.7972C29.6748 7.95171 28.117 6.69998 26.3972 6.31543C26.3709 6.30959 26.3444 6.30481 26.3177 6.30111C24.031 5.97963 20.1408 5.66699 15.905 5.66699ZM13.4375 11.335C13.6845 11.3299 13.9397 11.3883 14.1797 11.5238L19.9154 14.7646C20.8827 15.3113 20.8827 16.6906 19.9154 17.2373L14.1797 20.4782C13.2204 21.0195 12.0248 20.3339 12.0248 19.2412V12.7594C12.0248 11.9399 12.6967 11.3503 13.4375 11.335Z" fill="white"/>
</svg>
