<svg width="32" height="32" viewBox="0 0 32 32" fill="none" xmlns="http://www.w3.org/2000/svg">
<path d="M3.88662 15.744C12.2653 12.058 23.108 7.56403 24.6046 6.94203C28.5306 5.31403 29.7353 5.62603 29.1346 9.23136C28.7033 11.8227 27.4586 20.402 26.4666 25.742C25.878 28.9087 24.5573 29.284 22.4806 27.914C21.482 27.2547 16.4413 23.9214 15.3473 23.1387C14.3486 22.4254 12.9713 21.5674 14.6986 19.8774C15.3133 19.2754 19.3426 15.428 22.482 12.4334C22.8933 12.04 22.3766 11.394 21.902 11.7094C17.6706 14.5154 11.804 18.41 11.0573 18.9174C9.92928 19.6834 8.84595 20.0347 6.90128 19.476C5.43195 19.054 3.99662 18.5507 3.43795 18.3587C1.28662 17.62 1.79728 16.6634 3.88662 15.744Z" fill="white"/>
</svg>
